<?xml version="1.0" encoding="UTF-8"?><svg id="a" xmlns="http://www.w3.org/2000/svg" viewBox="0 0 379.49 379.49"><circle cx="189.74" cy="189.74" r="189.74"/><g><g><path d="M112.98,264.09c-.17,.02-.29-.13-.36-.48-.06-.34-.08-.69-.04-1.04,.02-.16,.07-.27,.13-.33s.15-.09,.27-.09c.8,0,2.25-.03,4.35-.1,1.05-.04,2.13-.11,3.24-.21,.43-.03,.7-.02,.8,.02,.1,.05,.15,.17,.15,.38l-.02,1.39c-.42,.05-1,.07-1.74,.08-.74,0-1.34,.03-1.8,.07-.09,0-.47,.03-1.14,.05-.67,.03-1.34,.06-2,.1-.66,.04-1.28,.09-1.85,.14Z" fill="#fff"/><path d="M145.92,260.95c.05,1.3-.07,2.52-.34,3.65-.27,1.13-.79,2.27-1.54,3.43-.23,.35-.5,.66-.81,.94-.31,.27-.61,.5-.91,.67-.29,.17-.64,.32-1.04,.44-.4,.12-.74,.21-1.02,.27-.28,.06-.63,.11-1.05,.14-.42,.03-.74,.05-.94,.05-.21,0-.5,0-.87,0h-.19l-4.2,.12c-.21,0-.38-.1-.52-.29-.14-.19-.21-.42-.21-.66,0-.1-.02-.42-.04-.98-.02-.56-.04-.99-.05-1.31-.02-.34,.02-1.31,.1-2.92,.08-1.6,.12-2.49,.12-2.67,0-.15-.06-1.35-.18-3.6-.12-2.25-.18-3.75-.17-4.51,.94-.21,1.62-.33,2.05-.37,1.12-.06,2.74-.1,4.85-.1,.64,0,1.3,.08,1.98,.23,.68,.15,1.32,.38,1.94,.67,.62,.29,1.14,.69,1.59,1.19,.44,.5,.72,1.05,.83,1.66,.14,.49,.25,.87,.31,1.13,.06,.26,.13,.64,.2,1.12,.07,.48,.12,1.04,.15,1.68Zm-4.22,5.24c.37-.62,.64-1.18,.79-1.69,.15-.51,.22-.99,.2-1.45-.02-.46-.04-1-.08-1.61-.05-.77-.12-1.78-.23-3.03-.17-2.08-2.23-3.04-6.2-2.88l-.86,.05c0,.41,0,.96-.01,1.64,0,.68-.01,1.06-.01,1.12,.02,.24,.05,3.48,.1,9.74,.45,.02,1.06,.02,1.84,.02,.33,0,.67-.02,1-.06,.33-.04,.72-.12,1.18-.23,.46-.12,.89-.31,1.3-.58,.41-.27,.74-.62,1-1.03Z" fill="#fff"/><path d="M162.74,268.87c.14,.79,.14,1.29-.02,1.49-.16,.25-.49,.37-1,.35-.2,0-.58-.03-1.14-.08-.56-.04-1.04-.07-1.42-.09-.39-.02-.9,0-1.56,.02-1.26,.11-2.29,.15-3.07,.12-.17-.02-.65,0-1.44,.05-.79,.05-1.49,.07-2.1,.05-.6-.02-.91-.11-.91-.27,0-.12-.02-.51-.03-1.19-.01-.67-.03-1.17-.04-1.48-.02-.36,0-1.3,.04-2.81,.04-1.52,.06-2.33,.06-2.43,0-.03-.01-.5-.04-1.41-.02-.91-.04-1.67-.04-2.3,0-.1-.01-.26-.04-.48-.02-.21-.04-.38-.04-.5,0-.18,0-.41,.01-.67,0-.27,.01-.45,.01-.55-.05-1.11-.06-2.04-.02-2.78,.57-.03,1.31-.05,2.2-.07,.9-.01,1.47-.03,1.73-.05,1.79-.08,2.81-.12,3.07-.12,.62,0,1.46-.01,2.51-.06,1.06-.05,1.59-.07,1.61-.07,.53-.02,.87,.08,1.02,.32,.04,.08,.06,.17,.06,.29s-.01,.27-.03,.48c-.02,.21-.03,.39-.03,.56l-.05,.82c-.23,.03-.88,.05-1.94,.05s-1.85,.02-2.36,.05c-.35,.02-1.1,.04-2.24,.04-1.14,0-1.93,.01-2.37,.03v2.67c0,.11,0,.39-.02,.83-.02,.44-.03,.86-.03,1.25v.56c1.31-.02,2.2-.06,2.66-.1,.56-.03,1.69-.11,3.37-.23,.28-.02,.49,.01,.65,.09,.15,.08,.25,.15,.28,.24,.03,.08,.05,.19,.05,.32l.02,1.59c-.49,.08-1.08,.12-1.77,.11-.69,0-1.32,0-1.89,.03l-3.35,.26c.03,2.38,.06,3.9,.07,4.54,2.01-.06,3.27-.09,3.77-.07,.34,0,.78,0,1.33-.02,.54-.02,.89-.03,1.03-.03,1.8,0,2.91,.03,3.35,.1l.07,.56Z" fill="#fff"/><path d="M179.11,269c0,.16,0,.35,.02,.56,.02,.21,.02,.38,.02,.49,0,.11-.03,.21-.07,.29-.15,.27-.46,.39-.93,.37-.18,0-.56-.03-1.13-.08-.57-.04-1.05-.07-1.44-.09-.39-.02-.89,0-1.51,.02-1.17,.11-2.13,.15-2.88,.12-.15-.02-.59,0-1.33,.05-.74,.05-1.38,.07-1.95,.05-.56-.02-.85-.11-.85-.27,0-.12-.02-.51-.03-1.19-.01-.67-.03-1.17-.04-1.48-.03-.36-.02-1.31,.02-2.85,.05-1.54,.07-2.34,.07-2.4,0-.03,0-.5-.02-1.41-.02-.91-.02-1.67-.02-2.3,0-.1-.02-.26-.05-.48-.03-.21-.05-.38-.05-.5,0-.08,0-.24,.02-.48,.01-.24,.01-.43,0-.57-.08-1.79-.12-2.73-.12-2.84,.07-.24,.2-.38,.39-.42,.1-.02,.2-.04,.32-.04s.27,0,.48,.02,.38,.02,.54,.02l1.42,.13c.04,.34,.06,1.22,.07,2.64,0,1.42,.02,2.19,.02,2.33,.02,.18,.02,.34,.02,.48,0,.14-.01,.38-.02,.73,0,.35,0,.69,0,1,0,.8,.03,2.07,.06,3.81,.03,1.74,.05,2.91,.06,3.51,1.75-.06,2.83-.08,3.25-.05,.2,.04,.6,.04,1.2,0,.6-.04,.94-.05,1.02-.05,1.83,0,2.94,.03,3.35,.1l.07,.76Z" fill="#fff"/><path d="M183.42,269.68c0-.11-.02-.44-.03-.98-.01-.54-.03-.97-.04-1.29-.02-.44-.03-.86-.03-1.26,0-.4,.01-.92,.03-1.54,.02-.63,.02-1.02,.02-1.18,0-.03,0-.21,0-.55,0-.33,0-.68,.01-1.03,0-.35,0-.74,0-1.15,0-.41-.01-.73-.02-.97-.14-2.87-.2-4.87-.18-6.02,.36-.25,1.04-.37,2.05-.37,.19,0,.35,0,.47,.02,.12,.01,.23,.05,.32,.11,.09,.06,.16,.11,.2,.15,.04,.04,.08,.14,.11,.29,.03,.15,.05,.27,.06,.38,0,.11,.02,.29,.04,.54,.02,.3,.02,1.47,.02,3.52,0,.02,.02,.32,.06,.91,.04,.59,.06,1.17,.06,1.72,0,.37,0,1.01-.02,1.9-.02,.89-.02,1.57-.02,2.03,0,.66,0,1.35,0,2.06,0,.72,0,1.31,.01,1.77,0,.46,0,.73,0,.78,0,.29-.08,.53-.24,.73-.16,.2-.37,.33-.64,.39-.14,.03-.3,.05-.49,.05s-.4,0-.63-.02c-.22-.02-.38-.02-.46-.02-.21,0-.37-.1-.49-.29-.12-.19-.18-.42-.18-.69Z" fill="#fff"/><path d="M198.26,270.96c-.56,0-1.12-.04-1.68-.13-.56-.09-1.17-.24-1.81-.45-.64-.21-1.2-.53-1.69-.97-.49-.43-.83-.96-1.03-1.57-.48-1.32-.8-2.49-.97-3.51-.17-1.02-.22-2.16-.15-3.41,0-.25,.03-.62,.08-1.08,.04-.47,.07-.77,.08-.89,0-.21,.03-.43,.06-.66,.03-.22,.07-.48,.13-.76,.05-.29,.09-.53,.13-.73,.2-1.33,.87-2.42,2.01-3.27,1.14-.85,2.58-1.28,4.32-1.28,.95,0,1.8,.1,2.57,.29,.77,.19,1.4,.46,1.9,.79,.5,.33,.89,.7,1.19,1.11s.5,.84,.6,1.3c.08,.32,.15,.66,.22,1.02,.07,.37,.12,.72,.15,1.07,.03,.35,0,.55-.07,.61-.49,.24-1.02,.34-1.57,.3l-1.12-.15c0-.06-.02-.23-.04-.51-.02-.29-.04-.54-.07-.75-.03-.21-.08-.4-.13-.56-.1-.26-.19-.48-.29-.67-.1-.18-.24-.37-.42-.57-.18-.2-.39-.36-.63-.48s-.54-.22-.92-.3c-.37-.08-.8-.12-1.28-.12-.92,0-1.66,.27-2.22,.8-.56,.53-.9,1.3-1.04,2.31-.03,.31-.08,.69-.13,1.14-.06,.45-.1,.87-.14,1.25-.04,.38-.08,.78-.11,1.2-.14,1.62,0,3.19,.38,4.71,.46,1.58,1.62,2.37,3.47,2.37,1.01,0,1.82-.23,2.44-.7,.62-.46,.96-1.04,1.03-1.72,0-.04,.02-.12,.03-.25,.01-.13,.02-.22,.03-.27,0-.06,.02-.14,.05-.25,.02-.11,.05-.19,.07-.25,.02-.06,.06-.12,.1-.18,.04-.07,.09-.12,.14-.15,.06-.03,.12-.05,.19-.06l1.91-.05,.44,.21c.02,1.01-.07,1.85-.27,2.51-.78,2.46-2.75,3.69-5.92,3.69Z" fill="#fff"/><path d="M209.28,269.68c0-.11-.02-.44-.03-.98-.01-.54-.03-.97-.04-1.29-.02-.44-.03-.86-.03-1.26,0-.4,.01-.92,.03-1.54,.02-.63,.02-1.02,.02-1.18,0-.03,0-.21,0-.55,0-.33,0-.68,.01-1.03,0-.35,0-.74,0-1.15,0-.41-.01-.73-.02-.97-.14-2.87-.2-4.87-.18-6.02,.36-.25,1.04-.37,2.05-.37,.19,0,.35,0,.47,.02,.12,.01,.23,.05,.32,.11,.09,.06,.16,.11,.2,.15,.04,.04,.08,.14,.11,.29,.03,.15,.05,.27,.06,.38,0,.11,.02,.29,.04,.54,.02,.3,.02,1.47,.02,3.52,0,.02,.02,.32,.06,.91,.04,.59,.06,1.17,.06,1.72,0,.37,0,1.01-.02,1.9-.02,.89-.02,1.57-.02,2.03,0,.66,0,1.35,0,2.06,0,.72,0,1.31,.01,1.77,0,.46,0,.73,0,.78,0,.29-.08,.53-.24,.73-.16,.2-.37,.33-.64,.39-.14,.03-.3,.05-.49,.05s-.4,0-.63-.02c-.22-.02-.38-.02-.46-.02-.21,0-.37-.1-.49-.29-.12-.19-.18-.42-.18-.69Z" fill="#fff"/><path d="M230.51,270.01c.08,.3,.09,.53,.04,.67-.06,.15-.21,.25-.45,.3-.38,.12-.8,.15-1.25,.1-.45-.05-.75-.21-.9-.47-.41-1.33-.68-2.33-.8-2.98,0-.03,0-.06-.02-.1-.87,.14-1.99,.23-3.35,.26-.14,0-.67,.04-1.57,.1-.91,.06-1.63,.1-2.18,.13-.19,.59-.38,1.13-.57,1.63-.11,.29-.22,.53-.32,.7-.1,.17-.21,.29-.33,.36-.12,.07-.24,.11-.38,.12-.14,.01-.3,0-.47,0-.48-.03-.89-.08-1.23-.14-.13-.02-.21-.04-.26-.05-.04,0-.11-.03-.18-.08-.08-.04-.13-.1-.14-.17-.01-.07-.01-.16,0-.29,.01-.13,.05-.28,.11-.46,.29-.89,.78-2.36,1.5-4.42,.71-2.05,1.1-3.18,1.16-3.39,.1-.38,.81-2.33,2.11-5.84,.13-.29,.27-.73,.44-1.3,.16-.57,.25-.88,.27-.92,.17-.56,.5-.87,1-.91,.12,0,.3,0,.55,0,.25,0,.43,0,.55,0s.28,0,.47,.02c.19,.01,.34,.04,.44,.08,.1,.04,.21,.09,.33,.15,.12,.06,.22,.15,.29,.26,.07,.11,.12,.24,.15,.39,.04,.17,.19,.62,.44,1.37,.25,.75,.57,1.68,.96,2.8,.39,1.12,.68,1.97,.88,2.56,1.03,3.17,1.55,4.78,1.56,4.83,.34,1.21,.73,2.77,1.17,4.7Zm-7.2-4.4c.11-.02,.36-.05,.74-.09,.38-.04,.78-.09,1.21-.15,.42-.06,.82-.11,1.17-.15-.04-.1-.07-.21-.1-.33-.08-.31-.17-.67-.28-1.07-.11-.4-.19-.72-.26-.96-.06-.24-.1-.4-.12-.49-.02-.14-.14-.54-.33-1.2-.2-.66-.5-1.63-.92-2.93-.41-1.3-.66-2.09-.75-2.37-.23,.8-.6,2.06-1.11,3.76-.51,1.7-.84,2.8-.98,3.3-.19,.65-.48,1.59-.88,2.8,.84-.02,1.71-.06,2.61-.12Z" fill="#fff"/><path d="M246.25,266.63c-.11,.76-.36,1.44-.74,2.04-.39,.6-.9,1.05-1.53,1.35-1.37,.65-2.77,.98-4.2,.98-.63,0-1.22-.05-1.77-.15-.55-.1-1.11-.27-1.68-.51-.57-.24-1.06-.61-1.48-1.09-.42-.48-.73-1.07-.92-1.76-.38-1.4-.46-2.6-.25-3.61l1.61-.02c.48,.08,.8,.24,.96,.49,.15,.25,.25,.66,.29,1.24,.09,1.1,.39,1.92,.91,2.46,.52,.54,1.31,.8,2.38,.8,.33,0,.66-.03,.98-.09,.32-.06,.63-.16,.93-.29,.3-.14,.57-.3,.79-.5,.23-.2,.41-.45,.54-.75,.14-.3,.2-.64,.2-1,0-.4-.07-.75-.18-1.05-.12-.3-.34-.6-.69-.9-.34-.3-.62-.51-.82-.65-.21-.13-.6-.37-1.19-.72-.18-.11-.32-.19-.42-.25-.39-.25-.93-.53-1.61-.86-.68-.33-1.28-.63-1.8-.91-.52-.27-.88-.53-1.1-.77-.93-.93-1.39-2.14-1.39-3.64,0-1.27,.56-2.33,1.68-3.18,1.12-.85,2.6-1.27,4.45-1.27,1.63,0,3,.38,4.12,1.14,1.12,.76,1.72,1.74,1.82,2.94,.05,.47,.07,1.06,.07,1.76l-1.74,.14c-.16,0-.29-.04-.41-.11-.11-.06-.2-.14-.27-.23-.07-.09-.12-.22-.17-.39-.04-.17-.08-.32-.1-.45-.02-.13-.04-.32-.07-.55-.07-.64-.45-1.19-1.15-1.63-.7-.44-1.41-.67-2.14-.67-.91,0-1.64,.23-2.2,.7-.56,.46-.85,1.09-.85,1.89-.02,.6,.22,1.13,.72,1.59,.49,.45,1.3,.86,2.43,1.23,1.18,.38,2.15,.77,2.9,1.17,.75,.4,1.3,.79,1.66,1.16,.36,.37,.67,.82,.94,1.35,.28,.55,.45,1.06,.52,1.54,.07,.48,.06,1.15-.04,2.03Z" fill="#fff"/><path d="M257.29,264.09c-.17,.02-.29-.13-.36-.48-.06-.34-.08-.69-.04-1.04,.02-.16,.07-.27,.13-.33s.15-.09,.27-.09c.8,0,2.25-.03,4.35-.1,1.05-.04,2.13-.11,3.24-.21,.43-.03,.7-.02,.8,.02,.1,.05,.15,.17,.15,.38l-.02,1.39c-.42,.05-1,.07-1.74,.08-.74,0-1.34,.03-1.8,.07-.09,0-.47,.03-1.14,.05-.67,.03-1.34,.06-2,.1-.66,.04-1.28,.09-1.85,.14Z" fill="#fff"/></g><path d="M76.27,128c-2.83-1.21-5.24,.4-7.74,1.24-3.36,1.12-6.65,2.4-10.18,2.93-3.32,.49-4.43-.65-3.56-3.88,1.39-5.17,4.17-9.48,8.3-12.85,2.08-1.69,4.75-2.3,7.26-3.12,5.1-1.68,10.42-2.23,15.74-2.7,4.49-.39,8.97-.96,13.46-1.12,7.74-.27,15.49-.23,23.1,1.51,6.32,1.44,12.2,3.98,17.22,8.09,2.66,2.17,4.74,4.97,6.42,8.03,4.83,8.77,5.57,18.16,4.4,27.87-.53,4.43-1.44,8.79-2.88,12.99-1.58,4.6-3.42,9.09-5.84,13.35-1.79,3.15-3.87,6.09-6.11,8.87-2.77,3.43-5.88,6.55-9.51,9.21-4.38,3.21-8.96,5.98-13.95,8.05-5.84,2.42-11.98,3.76-18.24,4.64-4.74,.67-9.51,.83-14.28,.79-4.24-.03-8.45-.48-12.62-1.3-2.44-.48-4.85-1.08-7.3-1.49-1.67-.29-3.11-1.12-4.54-1.86-1.99-1.03-3.14-2.73-2.93-5.18,.27-3.15,1.44-6.05,2.31-9.04,1.06-3.66,2.08-7.32,3.2-10.96,1.04-3.38,1.92-6.8,3.08-10.15,.94-2.73,1.66-5.55,2.38-8.36,.84-3.28,1.99-6.47,2.92-9.72,1.18-4.11,2.42-8.2,3.54-12.33,1.29-4.78,3.17-9.31,6.27-13.24,.06-.07,.05-.19,.07-.25Zm10.31,72.95v-.05c2.01-.14,4.03-.28,6.04-.43,6-.45,11.31-2.77,15.93-6.46,3.67-2.94,6.68-6.52,9.02-10.7,4.32-7.7,6.72-15.87,6.65-24.7-.04-5.59-1.13-11-2.98-16.3-2.02-5.78-5.03-10.7-10.41-13.91-1.88-1.12-3.84-2.02-6.01-2.38-1.15-.19-2.29-.1-2.72,1.29-1.18,3.83-2.24,7.7-3.29,11.56-1.31,4.84-2.31,9.76-3.74,14.58-1.44,4.86-2.48,9.84-3.91,14.71-1.28,4.37-2.37,8.78-3.45,13.2-.89,3.64-1.73,7.27-3.06,10.79-.87,2.31-2,4.41-3.49,6.35-.43,.57-.72,1.25-.27,1.91,.39,.57,1.03,.6,1.72,.57,1.32-.07,2.65-.02,3.97-.02Z" fill="#fff"/><path d="M201.21,179.47c.1-8.83-3.79-15.67-10.41-21.19-2.06-1.72-2.07-3.31,.13-4.7,3.9-2.46,7.96-4.65,12.58-5.48,6.33-1.13,11.46,2.12,14.71,7.14,2.84,4.38,3.74,9.25,4.14,14.27,.19,2.43-.19,4.87-.6,7.27-.62,3.59-1.33,7.17-2.79,10.55-1.22,2.82-2.86,5.4-4.69,7.86-1.49,2-3.11,3.85-5.04,5.46-3.09,2.57-6.43,4.73-10.02,6.48-2.04,1-4.06,2.2-6.23,2.74-3.37,.84-6.7,1.87-10.23,2.13-7.41,.55-14.4-1.02-21.2-3.72-4.89-1.94-8.93-5.05-11.75-9.52-1.71-2.71-2.44-5.83-2.89-8.99-1-7.12,.75-13.72,3.61-20.18,2-4.51,4.98-8.33,7.85-12.23,1.21-1.64,2.86-2.96,4.3-4.42,5.67-5.75,12.35-9.98,19.93-12.61,6.51-2.25,13.27-3.22,20.18-2.14,.72,.11,1.44,.37,2.12,.64,.97,.38,1.62,1.08,1.53,2.18-.1,1.15-1.11,1.32-1.98,1.49-1.81,.35-3.64,.63-5.46,.95-8.65,1.5-14.63,6.72-19.27,13.82-2.41,3.7-4.53,7.51-5.54,11.88-1.44,6.24-2.43,12.48-.88,18.85,1.37,5.61,4.62,9.61,10.19,11.31,3.26,1,6.44,.15,9.2-1.8,6.21-4.4,8.37-10.75,8.47-18.04Z" fill="#fff"/><path d="M262.2,192.08c.28-6.31,1.85-12.3,4.24-18.13,2.38-5.81,5.45-11.23,9.44-16.05,4.62-5.58,10.13-10.14,16.6-13.51,4.37-2.27,8.98-3.7,13.88-4.03,6.08-.41,12.9,2.8,14.75,9.56,1.53,5.55,1.06,10.83-.94,16.27-1.75,4.74-4.61,8.69-7.63,12.5-2.74,3.46-6.15,6.36-9.89,8.82-1.98,1.3-3.88,2.64-6.1,3.59-1.89,.81-3.72,1.04-5.69,.89-.84-.06-2.01-.44-2.31,.76-.27,1.06,.39,1.93,1.29,2.53,2.61,1.73,5.41,1.13,8.15,.53,3.27-.71,5.93-2.71,8.65-4.51,2.46-1.63,4.79-3.46,7.5-4.69,1.69-.77,5.55,.15,6.49,1.74,.7,1.19,.49,2.52-.51,3.5-2.3,2.25-4.76,4.33-7.24,6.39-3.06,2.54-6.38,4.61-9.74,6.71-4.2,2.62-8.68,4.38-13.34,5.97-4.18,1.43-8.32,1.2-12.52,.92-2.1-.14-3.87-1.36-5.76-2.19-4.11-1.81-6.33-5.37-8.04-9.17-1.17-2.58-1.5-5.5-1.29-8.41Zm41.24-34.73c.04-1.98-.07-3.94-.73-5.81-.6-1.73-1.83-2.11-3.45-1.35-2.77,1.3-4.03,3.85-5.26,6.34-3.21,6.54-5.62,13.36-6.91,20.56-.63,3.53-.84,7.06-.51,10.62,.18,1.96,1.62,2.6,3.17,1.43,3-2.27,5.41-5.11,7.3-8.31,4.26-7.22,6.18-15.13,6.37-23.48Z" fill="#fff"/><path d="M254.56,172.73c.13-3.09-.29-6.14-.89-9.16-.24-1.2-.6-2.85-1.78-2.85-.96,0-1.4,1.71-1.64,2.85-.66,3.1-.96,6.26-1.27,9.4-.4,4.06-.32,8.17-.78,12.21-.57,5.09-.52,10.27-1.66,15.28-.73,3.22-2.43,6.03-5.19,8.08-2.35,1.75-4.74,3.36-7.7,3.89-6.33,1.13-9.45-2.21-10.27-8.03-.68-4.84-.17-9.66,.17-14.44,.33-4.57,1.35-9.09,2.25-13.6,.75-3.73,1.69-7.42,2.72-11.08,1.65-5.85,3.37-11.69,6.24-17.09,1.85-3.49,4.35-6.41,8.46-7.38,3.81-.9,6.35,.42,7.78,4.01,.67,1.69,1.54,1.86,2.8,.48,1.03-1.13,1.86-2.46,2.99-3.46,3.3-2.93,7.3-.61,8.34,3.04,1.83,6.37,.73,12.71-.1,19.05-.64,4.94-2.27,9.56-4.73,13.88-.54,.95-1.31,1.81-2.14,2.53-1.34,1.16-3,.16-3.27-1.91-.25-1.89-.42-3.79-.36-5.7Z" fill="#fff"/><path d="M295.74,137.16c-.52,0-.68,.01-.83,0-1.19-.09-2.51-.24-2.93-1.48-.42-1.23,.62-2.02,1.52-2.72,5.43-4.29,9.8-9.53,13.29-15.45,1.28-2.16,3.11-3.08,5.28-3.64,3.73-.97,7.5-1.82,11.25-2.71,.21-.05,.41-.13,.62-.15,2.51-.3,3.7,1.2,2.74,3.53-1.08,2.62-2.73,4.9-4.69,6.94-2.82,2.93-5.52,6.02-8.88,8.37-4.94,3.48-10.2,6.31-16.29,7.24-.47,.07-.95,.08-1.07,.08Z" fill="#fff"/></g></svg>